{
  "accessors": [
    {
      "bufferView": 2,
      "componentType": 5126,
      "count": 329,
      "max": [
        165.414794921875,
        318.61199951171875,
        317.2192077636719
      ],
      "min": [
        48.736900329589844,
        84.72740173339844,
        243.54119873046875
      ],
      "type": "VEC3"
    },
    {
      "bufferView": 2,
      "byteOffset": 3948,
      "componentType": 5126,
      "count": 329,
      "max": [
        0.9604471325874329,
        0.7840180993080139,
        0.9999260902404785
      ],
      "min": [
        -0.7257241606712341,
        -0.7286643385887146,
        0.27329814434051514
      ],
      "type": "VEC3"
    },
    {
      "bufferView": 3,
      "componentType": 5126,
      "count": 329,
      "max": [
        0.9999193549156189,
        0.37367287278175354,
        0.6963210105895996,
        1.0
      ],
      "min": [
        0.27522116899490356,
        -0.33845701813697815,
        -0.9553384184837341,
        1.0
      ],
      "type": "VEC4"
    },
    {
      "bufferView": 1,
      "componentType": 5126,
      "count": 329,
      "max": [
        0.5527999997138977,
        0.9908000230789185
      ],
      "min": [
        0.008200000040233135,
        0.0066999997943639755
      ],
      "type": "VEC2"
    },
    {
      "bufferView": 0,
      "componentType": 5125,
      "count": 1662,
      "type": "SCALAR"
    },
    {
      "bufferView": 2,
      "byteOffset": 7896,
      "componentType": 5126,
      "count": 16215,
      "max": [
        156.77149963378906,
        83.81200408935547,
        247.23480224609375
      ],
      "min": [
        56.465702056884766,
        33.53580093383789,
        72.48680114746094
      ],
      "type": "VEC3"
    },
    {
      "bufferView": 2,
      "byteOffset": 202476,
      "componentType": 5126,
      "count": 16215,
      "max": [
        0.9999191761016846,
        0.999991774559021,
        0.9952919483184814
      ],
      "min": [
        -0.9998435378074646,
        -0.999969482421875,
        -0.9999048709869385
      ],
      "type": "VEC3"
    },
    {
      "bufferView": 3,
      "byteOffset": 5264,
      "componentType": 5126,
      "count": 16215,
      "max": [
        0.9999989867210388,
        0.9999582171440125,
        0.9944759011268616,
        1.0
      ],
      "min": [
        -0.999687135219574,
        -0.9995917081832886,
        -0.9887512922286987,
        1.0
      ],
      "type": "VEC4"
    },
    {
      "bufferView": 1,
      "byteOffset": 2632,
      "componentType": 5126,
      "count": 16215,
      "max": [
        0.7519000172615051,
        0.9739000201225281
      ],
      "min": [
        0.009200000204145908,
        0.13840000331401825
      ],
      "type": "VEC2"
    },
    {
      "bufferView": 0,
      "byteOffset": 6648,
      "componentType": 5125,
      "count": 94512,
      "type": "SCALAR"
    },
    {
      "bufferView": 2,
      "byteOffset": 397056,
      "componentType": 5126,
      "count": 35480,
      "max": [
        158.44259643554688,
        93.47709655761719,
        249.23959350585938
      ],
      "min": [
        54.750301361083984,
        42.81050109863281,
        57.82310104370117
      ],
      "type": "VEC3"
    },
    {
      "bufferView": 2,
      "byteOffset": 822816,
      "componentType": 5126,
      "count": 35480,
      "max": [
        0.9999550580978394,
        0.999415397644043,
        0.9999998807907104
      ],
      "min": [
        -0.9999778270721436,
        -0.9999185800552368,
        -0.9999785423278809
      ],
      "type": "VEC3"
    },
    {
      "bufferView": 3,
      "byteOffset": 264704,
      "componentType": 5126,
      "count": 35480,
      "max": [
        0.9998556971549988,
        0.9999794960021973,
        0.9998451471328735,
        1.0
      ],
      "min": [
        -0.9999932646751404,
        -0.9998761415481567,
        -0.9998695254325867,
        -1.0
      ],
      "type": "VEC4"
    },
    {
      "bufferView": 1,
      "byteOffset": 132352,
      "componentType": 5126,
      "count": 35480,
      "max": [
        0.9934999942779541,
        0.8176000118255615
      ],
      "min": [
        0.02280000038444996,
        0.009600000455975533
      ],
      "type": "VEC2"
    },
    {
      "bufferView": 0,
      "byteOffset": 384696,
      "componentType": 5125,
      "count": 202944,
      "type": "SCALAR"
    },
    {
      "bufferView": 2,
      "byteOffset": 1248576,
      "componentType": 5126,
      "count": 2321,
      "max": [
        132.47520446777344,
        77.65699768066406,
        221.33941650390625
      ],
      "min": [
        83.30239868164063,
        29.616701126098633,
        138.79830932617188
      ],
      "type": "VEC3"
    },
    {
      "bufferView": 2,
      "byteOffset": 1276428,
      "componentType": 5126,
      "count": 2321,
      "max": [
        0.9995086789131165,
        0.9999744892120361,
        0.9975983500480652
      ],
      "min": [
        -0.9993489384651184,
        -0.9997994303703308,
        -0.9979758858680725
      ],
      "type": "VEC3"
    },
    {
      "bufferView": 3,
      "byteOffset": 832384,
      "componentType": 5126,
      "count": 2321,
      "max": [
        0.9999905228614807,
        0.9993338584899902,
        0.9873685836791992,
        1.0
      ],
      "min": [
        -0.9999764561653137,
        -0.9994657039642334,
        -0.9996999502182007,
        1.0
      ],
      "type": "VEC4"
    },
    {
      "bufferView": 1,
      "byteOffset": 416192,
      "componentType": 5126,
      "count": 2321,
      "max": [
        0.9873999953269958,
        0.9934999942779541
      ],
      "min": [
        0.009600000455975533,
        0.009399999864399433
      ],
      "type": "VEC2"
    },
    {
      "bufferView": 0,
      "byteOffset": 1196472,
      "componentType": 5125,
      "count": 12003,
      "type": "SCALAR"
    },
    {
      "bufferView": 2,
      "byteOffset": 1304280,
      "componentType": 5126,
      "count": 252,
      "max": [
        116.29930114746094,
        74.14579772949219,
        242.25228881835938
      ],
      "min": [
        98.92670440673828,
        49.26320266723633,
        231.0015869140625
      ],
      "type": "VEC3"
    },
    {
      "bufferView": 2,
      "byteOffset": 1307304,
      "componentType": 5126,
      "count": 252,
      "max": [
        0.9997366070747375,
        0.9363105893135071,
        0.9953655004501343
      ],
      "min": [
        -0.9992569088935852,
        -0.9415855407714844,
        -0.9956832528114319
      ],
      "type": "VEC3"
    },
    {
      "bufferView": 3,
      "byteOffset": 869520,
      "componentType": 5126,
      "count": 252,
      "max": [
        0.9933105111122131,
        0.9933309555053711,
        0.998812735080719,
        1.0
      ],
      "min": [
        -0.9936456084251404,
        -0.9938783645629883,
        -0.999267041683197,
        -1.0
      ],
      "type": "VEC4"
    },
    {
      "bufferView": 1,
      "byteOffset": 434760,
      "componentType": 5126,
      "count": 252,
      "max": [
        0.7321000099182129,
        0.996999979019165
      ],
      "min": [
        0.004999999888241291,
        0.008200000040233135
      ],
      "type": "VEC2"
    },
    {
      "bufferView": 0,
      "byteOffset": 1244484,
      "componentType": 5125,
      "count": 1092,
      "type": "SCALAR"
    },
    {
      "bufferView": 2,
      "byteOffset": 1310328,
      "componentType": 5126,
      "count": 3221,
      "max": [
        127.59080505371094,
        143.53289794921875,
        246.41949462890625
      ],
      "min": [
        95.70870208740234,
        41.308799743652344,
        165.8568115234375
      ],
      "type": "VEC3"
    },
    {
      "bufferView": 2,
      "byteOffset": 1348980,
      "componentType": 5126,
      "count": 3221,
      "max": [
        0.9999417066574097,
        0.9967319369316101,
        0.9991161227226257
      ],
      "min": [
        -0.999629557132721,
        -0.9994076490402222,
        -0.9998112320899963
      ],
      "type": "VEC3"
    },
    {
      "bufferView": 3,
      "byteOffset": 873552,
      "componentType": 5126,
      "count": 3221,
      "max": [
        0.9996753334999084,
        0.9991626143455505,
        0.9997609257698059,
        1.0
      ],
      "min": [
        -0.9993818402290344,
        -0.9993175864219666,
        -0.997401237487793,
        -1.0
      ],
      "type": "VEC4"
    },
    {
      "bufferView": 1,
      "byteOffset": 436776,
      "componentType": 5126,
      "count": 3221,
      "max": [
        0.9919999837875366,
        0.9921000003814697
      ],
      "min": [
        0.013399999588727951,
        0.007400000002235174
      ],
      "type": "VEC2"
    },
    {
      "bufferView": 0,
      "byteOffset": 1248852,
      "componentType": 5125,
      "count": 15918,
      "type": "SCALAR"
    },
    {
      "bufferView": 2,
      "byteOffset": 1387632,
      "componentType": 5126,
      "count": 1082,
      "max": [
        176.90029907226563,
        237.24020385742188,
        60.41450119018555
      ],
      "min": [
        0.0,
        0.0,
        0.0
      ],
      "type": "VEC3"
    },
    {
      "bufferView": 2,
      "byteOffset": 1400616,
      "componentType": 5126,
      "count": 1082,
      "max": [
        0.9989175200462341,
        0.9962955713272095,
        0.999017059803009
      ],
      "min": [
        -0.9997807145118713,
        -0.9979369044303894,
        -0.9851123094558716
      ],
      "type": "VEC3"
    },
    {
      "bufferView": 3,
      "byteOffset": 925088,
      "componentType": 5126,
      "count": 1082,
      "max": [
        0.9968838095664978,
        0.9997837543487549,
        0.9951500296592712,
        1.0
      ],
      "min": [
        -0.9862228631973267,
        -0.8874830603599548,
        -0.9913250207901001,
        -1.0
      ],
      "type": "VEC4"
    },
    {
      "bufferView": 1,
      "byteOffset": 462544,
      "componentType": 5126,
      "count": 1082,
      "max": [
        0.9779000282287598,
        0.9904000163078308
      ],
      "min": [
        0.016599999740719795,
        0.010499999858438969
      ],
      "type": "VEC2"
    },
    {
      "bufferView": 0,
      "byteOffset": 1312524,
      "componentType": 5125,
      "count": 5937,
      "type": "SCALAR"
    }
  ],
  "asset": {
    "extras": {
      "author": "Aboulicious (https://sketchfab.com/aboulicious)",
      "license": "CC-BY-NC-4.0 (http://creativecommons.org/licenses/by-nc/4.0/)",
      "source": "https://sketchfab.com/3d-models/blanket-in-the-wind-af3e37a0868742d3b756e784adc060ae",
      "title": "Blanket In The Wind"
    },
    "generator": "Sketchfab-12.67.0",
    "version": "2.0"
  },
  "bufferViews": [
    {
      "buffer": 0,
      "byteLength": 1336272,
      "name": "floatBufferViews",
      "target": 34963
    },
    {
      "buffer": 0,
      "byteLength": 471200,
      "byteOffset": 1336272,
      "byteStride": 8,
      "name": "floatBufferViews",
      "target": 34962
    },
    {
      "buffer": 0,
      "byteLength": 1413600,
      "byteOffset": 1807472,
      "byteStride": 12,
      "name": "floatBufferViews",
      "target": 34962
    },
    {
      "buffer": 0,
      "byteLength": 942400,
      "byteOffset": 3221072,
      "byteStride": 16,
      "name": "floatBufferViews",
      "target": 34962
    }
  ],
  "buffers": [
    {
      "byteLength": 4163472,
      "uri": "scene.bin"
    }
  ],
  "images": [
    {
      "uri": "textures/Blanket_baseColor.png"
    },
    {
      "uri": "textures/Blanket_metallicRoughness.png"
    },
    {
      "uri": "textures/Blanket_normal.png"
    },
    {
      "uri": "textures/Character_baseColor.jpeg"
    },
    {
      "uri": "textures/Character_metallicRoughness.png"
    },
    {
      "uri": "textures/Character_normal.png"
    },
    {
      "uri": "textures/Cloth_baseColor.png"
    },
    {
      "uri": "textures/Cloth_metallicRoughness.png"
    },
    {
      "uri": "textures/Cloth_normal.png"
    },
    {
      "uri": "textures/Hair_baseColor.png"
    },
    {
      "uri": "textures/Hair_metallicRoughness.png"
    },
    {
      "uri": "textures/Hair_normal.png"
    },
    {
      "uri": "textures/Stones_baseColor.jpeg"
    },
    {
      "uri": "textures/Stones_metallicRoughness.png"
    },
    {
      "uri": "textures/Stones_normal.png"
    }
  ],
  "materials": [
    {
      "alphaMode": "BLEND",
      "doubleSided": true,
      "name": "Blanket",
      "normalTexture": {
        "index": 2
      },
      "occlusionTexture": {
        "index": 1
      },
      "pbrMetallicRoughness": {
        "baseColorTexture": {
          "index": 0
        },
        "metallicRoughnessTexture": {
          "index": 1
        }
      }
    },
    {
      "name": "Character",
      "normalTexture": {
        "index": 5
      },
      "occlusionTexture": {
        "index": 4
      },
      "pbrMetallicRoughness": {
        "baseColorTexture": {
          "index": 3
        },
        "metallicRoughnessTexture": {
          "index": 4
        }
      }
    },
    {
      "alphaCutoff": 0.3,
      "alphaMode": "MASK",
      "doubleSided": true,
      "name": "Cloth",
      "normalTexture": {
        "index": 8
      },
      "occlusionTexture": {
        "index": 7
      },
      "pbrMetallicRoughness": {
        "baseColorTexture": {
          "index": 6
        },
        "metallicRoughnessTexture": {
          "index": 7
        }
      }
    },
    {
      "alphaMode": "MASK",
      "doubleSided": true,
      "name": "Hair",
      "normalTexture": {
        "index": 11
      },
      "occlusionTexture": {
        "index": 10
      },
      "pbrMetallicRoughness": {
        "baseColorTexture": {
          "index": 9
        },
        "metallicFactor": 0.12,
        "metallicRoughnessTexture": {
          "index": 10
        },
        "roughnessFactor": 0.75
      }
    },
    {
      "name": "Stones",
      "normalTexture": {
        "index": 14
      },
      "occlusionTexture": {
        "index": 13
      },
      "pbrMetallicRoughness": {
        "baseColorTexture": {
          "index": 12
        },
        "metallicRoughnessTexture": {
          "index": 13
        }
      }
    }
  ],
  "meshes": [
    {
      "name": "Object_0",
      "primitives": [
        {
          "attributes": {
            "NORMAL": 1,
            "POSITION": 0,
            "TANGENT": 2,
            "TEXCOORD_0": 3
          },
          "indices": 4,
          "material": 0,
          "mode": 4
        }
      ]
    },
    {
      "name": "Object_1",
      "primitives": [
        {
          "attributes": {
            "NORMAL": 6,
            "POSITION": 5,
            "TANGENT": 7,
            "TEXCOORD_0": 8
          },
          "indices": 9,
          "material": 1,
          "mode": 4
        }
      ]
    },
    {
      "name": "Object_2",
      "primitives": [
        {
          "attributes": {
            "NORMAL": 11,
            "POSITION": 10,
            "TANGENT": 12,
            "TEXCOORD_0": 13
          },
          "indices": 14,
          "material": 1,
          "mode": 4
        }
      ]
    },
    {
      "name": "Object_3",
      "primitives": [
        {
          "attributes": {
            "NORMAL": 16,
            "POSITION": 15,
            "TANGENT": 17,
            "TEXCOORD_0": 18
          },
          "indices": 19,
          "material": 2,
          "mode": 4
        }
      ]
    },
    {
      "name": "Object_4",
      "primitives": [
        {
          "attributes": {
            "NORMAL": 21,
            "POSITION": 20,
            "TANGENT": 22,
            "TEXCOORD_0": 23
          },
          "indices": 24,
          "material": 3,
          "mode": 4
        }
      ]
    },
    {
      "name": "Object_5",
      "primitives": [
        {
          "attributes": {
            "NORMAL": 26,
            "POSITION": 25,
            "TANGENT": 27,
            "TEXCOORD_0": 28
          },
          "indices": 29,
          "material": 3,
          "mode": 4
        }
      ]
    },
    {
      "name": "Object_6",
      "primitives": [
        {
          "attributes": {
            "NORMAL": 31,
            "POSITION": 30,
            "TANGENT": 32,
            "TEXCOORD_0": 33
          },
          "indices": 34,
          "material": 4,
          "mode": 4
        }
      ]
    }
  ],
  "nodes": [
    {
      "children": [
        1
      ],
      "matrix": [
        1.0,
        0.0,
        0.0,
        0.0,
        0.0,
        2.220446049250313e-16,
        -1.0,
        0.0,
        0.0,
        1.0,
        2.220446049250313e-16,
        0.0,
        0.0,
        0.0,
        0.0,
        1.0
      ],
      "name": "Sketchfab_model"
    },
    {
      "children": [
        2
      ],
      "matrix": [
        1.0,
        0.0,
        0.0,
        0.0,
        0.0,
        1.0,
        0.0,
        0.0,
        0.0,
        0.0,
        1.0,
        0.0,
        -107.81410217285156,
        -52.013301849365234,
        -59.315101623535156,
        1.0
      ],
      "name": "Blanket_In_The_Wind_Sketchfab_Version.obj.cleaner.gles"
    },
    {
      "children": [
        3,
        4,
        5,
        6,
        7,
        8,
        9
      ],
      "name": "Object_2"
    },
    {
      "mesh": 0,
      "name": "Object_3"
    },
    {
      "mesh": 1,
      "name": "Object_4"
    },
    {
      "mesh": 2,
      "name": "Object_5"
    },
    {
      "mesh": 3,
      "name": "Object_6"
    },
    {
      "mesh": 4,
      "name": "Object_7"
    },
    {
      "mesh": 5,
      "name": "Object_8"
    },
    {
      "mesh": 6,
      "name": "Object_9"
    }
  ],
  "samplers": [
    {
      "magFilter": 9729,
      "minFilter": 9987,
      "wrapS": 10497,
      "wrapT": 10497
    }
  ],
  "scene": 0,
  "scenes": [
    {
      "name": "Sketchfab_Scene",
      "nodes": [
        0
      ]
    }
  ],
  "textures": [
    {
      "sampler": 0,
      "source": 0
    },
    {
      "sampler": 0,
      "source": 1
    },
    {
      "sampler": 0,
      "source": 2
    },
    {
      "sampler": 0,
      "source": 3
    },
    {
      "sampler": 0,
      "source": 4
    },
    {
      "sampler": 0,
      "source": 5
    },
    {
      "sampler": 0,
      "source": 6
    },
    {
      "sampler": 0,
      "source": 7
    },
    {
      "sampler": 0,
      "source": 8
    },
    {
      "sampler": 0,
      "source": 9
    },
    {
      "sampler": 0,
      "source": 10
    },
    {
      "sampler": 0,
      "source": 11
    },
    {
      "sampler": 0,
      "source": 12
    },
    {
      "sampler": 0,
      "source": 13
    },
    {
      "sampler": 0,
      "source": 14
    }
  ]
}
