{
  "accessors": [
    {
      "bufferView": 2,
      "componentType": 5126,
      "count": 406,
      "max": [
        7.0831451416015625,
        1.4649608135223389,
        -2.2284319400787354
      ],
      "min": [
        -6.982146739959717,
        -0.6230446100234985,
        -10.829854011535645
      ],
      "type": "VEC3"
    },
    {
      "bufferView": 2,
      "byteOffset": 4872,
      "componentType": 5126,
      "count": 406,
      "max": [
        1.0,
        1.0,
        1.0
      ],
      "min": [
        -1.0,
        -1.0,
        -1.0
      ],
      "type": "VEC3"
    },
    {
      "bufferView": 1,
      "componentType": 5126,
      "count": 406,
      "max": [
        0.9531248211860657,
        0.9531248807907104
      ],
      "min": [
        0.03909921646118164,
        0.06255993247032166
      ],
      "type": "VEC2"
    },
    {
      "bufferView": 0,
      "componentType": 5125,
      "count": 666,
      "type": "SCALAR"
    }
  ],
  "asset": {
    "extras": {
      "author": "VX-Designs (https://sketchfab.com/vxdesigns)",
      "license": "CC-BY-4.0 (http://creativecommons.org/licenses/by/4.0/)",
      "source": "https://sketchfab.com/3d-models/led-tv-low-poly-free-c3b53886b18247b79460b4992ea071d1",
      "title": "LED TV (Low Poly) (FREE)"
    },
    "generator": "Sketchfab-12.68.0",
    "version": "2.0"
  },
  "bufferViews": [
    {
      "buffer": 0,
      "byteLength": 2664,
      "name": "floatBufferViews",
      "target": 34963
    },
    {
      "buffer": 0,
      "byteLength": 3248,
      "byteOffset": 2664,
      "byteStride": 8,
      "name": "floatBufferViews",
      "target": 34962
    },
    {
      "buffer": 0,
      "byteLength": 9744,
      "byteOffset": 5912,
      "byteStride": 12,
      "name": "floatBufferViews",
      "target": 34962
    }
  ],
  "buffers": [
    {
      "byteLength": 15656,
      "uri": "scene.bin"
    }
  ],
  "images": [
    {
      "uri": "textures/Scene_-_Root_baseColor.jpeg"
    },
    {
      "uri": "textures/Scene_-_Root_metallicRoughness.png"
    }
  ],
  "materials": [
    {
      "doubleSided": true,
      "name": "Scene_-_Root",
      "pbrMetallicRoughness": {
        "baseColorTexture": {
          "index": 0
        },
        "metallicRoughnessTexture": {
          "index": 1
        }
      }
    }
  ],
  "meshes": [
    {
      "name": "Cube__0",
      "primitives": [
        {
          "attributes": {
            "NORMAL": 1,
            "POSITION": 0,
            "TEXCOORD_0": 2
          },
          "indices": 3,
          "material": 0,
          "mode": 4
        }
      ]
    }
  ],
  "nodes": [
    {
      "children": [
        1
      ],
      "matrix": [
        0.0037970321718603373,
        0.0,
        0.0,
        0.0,
        0.0,
        8.431105084883622e-19,
        -0.0037970321718603373,
        0.0,
        0.0,
        0.0037970321718603373,
        8.431105084883622e-19,
        0.0,
        0.0,
        0.0,
        0.0,
        1.0
      ],
      "name": "Sketchfab_model"
    },
    {
      "children": [
        2
      ],
      "matrix": [
        1.0,
        0.0,
        0.0,
        0.0,
        0.0,
        0.0,
        1.0,
        0.0,
        0.0,
        -1.0,
        0.0,
        0.0,
        0.0,
        0.0,
        0.0,
        1.0
      ],
      "name": "ff817df80d5748a4812f81d26cf3d6a0.fbx"
    },
    {
      "children": [
        3
      ],
      "name": "RootNode"
    },
    {
      "children": [
        4
      ],
      "matrix": [
        41.04253387451124,
        -5.026259906767265e-15,
        6.197250199381945e-06,
        -0.0,
        6.1972501993819265e-06,
        -3.0986251154044e-06,
        -41.04253387451113,
        -0.0,
        -4.72905634577586e-13,
        -41.0425338745116,
        3.0986251062911266e-06,
        -0.0,
        -1.3231277465820313,
        -91.25699615478516,
        3.9006710052490234,
        1.0
      ],
      "name": "Cube"
    },
    {
      "mesh": 0,
      "name": "Cube__0"
    }
  ],
  "samplers": [
    {
      "magFilter": 9729,
      "minFilter": 9987,
      "wrapS": 10497,
      "wrapT": 10497
    }
  ],
  "scene": 0,
  "scenes": [
    {
      "name": "Sketchfab_Scene",
      "nodes": [
        0
      ]
    }
  ],
  "textures": [
    {
      "sampler": 0,
      "source": 0
    },
    {
      "sampler": 0,
      "source": 1
    }
  ]
}
